<?xml version="1.0" encoding="utf-8"?>
<!-- Generator: Adobe Illustrator 22.1.0, SVG Export Plug-In . SVG Version: 6.00 Build 0)  -->
<svg version="1.1" id="圖層_1" xmlns="http://www.w3.org/2000/svg" xmlns:xlink="http://www.w3.org/1999/xlink" x="0px" y="0px"
	 viewBox="0 0 100 100" style="enable-background:new 0 0 100 100;" xml:space="preserve">
<style type="text/css">
	.st0{fill:#FFFFFF;}
</style>
<g>
	<path class="st0" d="M84.9,16.9H23c-4.2,0-7.9,3.2-8.4,7.3c-0.1,0.5-0.1,0.9-0.1,1.2v0.3c-0.1,0-0.2,0-0.4,0
		c-4.3,0.5-7.5,4.1-7.5,8.4v41c0,4.7,3.8,8.5,8.5,8.5H77c4.4,0,8-3.2,8.4-7.6c0-0.4-0.1-0.8-0.3-1.1c0.3,0,0.6,0,1-0.1
		c4.1-0.5,7.3-4.1,7.3-8.4v-41C93.4,20.7,89.6,16.9,84.9,16.9z M77,79.5H15.1c-2.4,0-4.4-2-4.4-4.4V34c0-2.2,1.6-4,3.8-4.3v36.7
		c0,4.7,3.8,8.5,8.5,8.5h58.5c-0.1,0.2-0.2,0.5-0.2,0.7C81.1,77.8,79.2,79.5,77,79.5z M89.3,66.4c0,2.2-1.7,4.1-3.9,4.3L23,70.8
		c-2.4,0-4.4-2-4.4-4.4l0-41l0.1-0.6c0.2-2.2,2.1-3.9,4.3-3.9h61.9c2.4,0,4.4,2,4.4,4.4V66.4z"/>
	<path class="st0" d="M71.6,41.5L58.8,54.6L44.2,40.6L24.9,60.5c-0.8,0.8-0.8,2.1,0,2.9c0.8,0.8,2.1,0.8,2.9,0l16.6-17l18.7,17.9
		c0.4,0.4,0.9,0.6,1.4,0.6c0.5,0,1.1-0.2,1.5-0.6c0.8-0.8,0.7-2.1-0.1-2.9l-4.1-3.9l9.9-10.1L82,57.1c0.8,0.8,2.1,0.7,2.9-0.1
		c0.8-0.8,0.7-2.1-0.1-2.9L71.6,41.5z"/>
	<path class="st0" d="M64.3,44.2c5.6,0,10.2-4.6,10.2-10.2c0-5.6-4.6-10.2-10.2-10.2s-10.2,4.6-10.2,10.2
		C54.1,39.7,58.7,44.2,64.3,44.2z M64.3,28c3.3,0,6.1,2.7,6.1,6.1c0,3.3-2.7,6.1-6.1,6.1c-3.3,0-6.1-2.7-6.1-6.1
		C58.2,30.7,60.9,28,64.3,28z"/>
</g>
</svg>
