<?xml version="1.0" encoding="utf-8"?>
<!-- Generator: Adobe Illustrator 22.1.0, SVG Export Plug-In . SVG Version: 6.00 Build 0)  -->
<svg version="1.1" id="圖層_1" xmlns="http://www.w3.org/2000/svg" xmlns:xlink="http://www.w3.org/1999/xlink" x="0px" y="0px"
	 viewBox="0 0 100 100" style="enable-background:new 0 0 100 100;" xml:space="preserve">
<style type="text/css">
	.st0{fill:#FFFFFF;}
</style>
<g>
	<path class="st0" d="M85.4,43.3C89,39.7,91,34.8,91,29.7s-2.1-10-5.6-13.5c-3.5-3.6-8.5-5.6-13.6-5.6c-5,0-9.6,1.9-13.2,5.3
		c-3.2-1.3-6.6-2-10.1-2c-17.2,0-28.8,16.2-28.8,31.3v15.7c0,0.4-0.1,0.9-0.2,1.4l-1.8,5.4c-0.9,2.6-0.4,5.5,1.2,7.8
		c1.6,2.2,4.2,3.6,7,3.6H35C36.5,85.4,42.1,90,48.8,90c3.8,0,7.3-1.5,10-4.1c1.9-1.9,3.1-4.2,3.7-6.7h9.1c2.8,0,5.5-1.4,7.1-3.8
		s1.9-5.4,0.9-8.1L78.7,65c-0.2-0.7-0.4-1.2-0.4-1.8V47.8C80.9,46.9,83.4,45.3,85.4,43.3z M82.6,19c2.8,2.8,4.4,6.7,4.4,10.6
		c0,4-1.6,7.9-4.4,10.7c-1.9,1.9-4.3,3.3-6.9,3.9c-1.2,0.3-2.4,0.5-3.7,0.5c-8.4,0-15.1-6.8-15.1-15.1c0-3.7,1.4-7.3,3.9-10.1
		l0.4-0.5l0.1-0.1C64.2,16,68,14.5,72,14.5C75.9,14.6,79.8,16.2,82.6,19z M55.8,82.9c-1.9,1.9-4.4,2.9-7.1,2.9
		c-4.4,0-8.2-2.8-9.6-6.8h19.1C57.8,80.5,56.9,81.8,55.8,82.9z M75.3,73c-0.9,1.3-2.2,2-3.7,2h-8.5l0,0H34.3l0,0h-8.5
		c-1.4,0-2.8-0.7-3.6-1.9c-0.9-1.2-1.1-2.7-0.6-4.1l1.9-5.5c0.3-1,0.4-1.8,0.4-2.6V45.2C23.9,32,33.8,18,48.6,18
		c2.5,0,4.9,0.4,7.3,1.2c-0.1,0.1-0.1,0.2-0.2,0.3c-0.2,0.3-0.3,0.6-0.5,0.9c-0.4,0.6-0.7,1.3-1,2c-0.1,0.3-0.3,0.7-0.4,1
		c-0.2,0.7-0.4,1.4-0.6,2.1c-0.1,0.3-0.2,0.7-0.2,1c-0.2,1.1-0.3,2.1-0.3,3.2c0,10.6,8.6,19.2,19.2,19.2c0.8,0,1.5,0,2.2-0.1v14.4
		c0,1,0.2,2,0.6,3.2l1,2.4C76.3,70.2,76.1,71.7,75.3,73z"/>
</g>
</svg>
