<?xml version="1.0" encoding="utf-8"?>
<!-- Generator: Adobe Illustrator 22.1.0, SVG Export Plug-In . SVG Version: 6.00 Build 0)  -->
<svg version="1.1" id="圖層_1" xmlns="http://www.w3.org/2000/svg" xmlns:xlink="http://www.w3.org/1999/xlink" x="0px" y="0px"
	 viewBox="0 0 100 100" style="enable-background:new 0 0 100 100;" xml:space="preserve">
<style type="text/css">
	.st0{fill:#FFFFFF;}
</style>
<g>
	<path class="st0" d="M50,55.8c12.7,0,23-10.3,23-23s-10.3-23-23-23s-23,10.3-23,23S37.3,55.8,50,55.8z M50,13.9
		c10.4,0,18.9,8.5,18.9,18.9S60.4,51.7,50,51.7s-18.9-8.5-18.9-18.9S39.6,13.9,50,13.9z"/>
	<path class="st0" d="M75.7,55.3c-3.7-2.6-6-1.6-8.9-0.4c-2.9,1.2-7.4,3-16.8,3s-13.9-1.8-16.8-3s-5.3-2.1-8.9,0.4
		C18.9,59.1,10.1,75.4,13,84.7c1.2,3.9,4.4,6,9,6h56c4.6,0,7.8-2.1,9-6C89.9,75.4,81.1,59.1,75.7,55.3z M83.1,83.4
		c-0.4,1.3-1.4,3.1-5.1,3.1H22c-3.7,0-4.7-1.8-5.1-3.1c-2.2-7,5.4-21.8,9.7-24.8c0.9-0.6,1.5-0.9,2.1-0.9c0.7,0,1.5,0.3,2.9,0.9
		C34.9,60,39.8,61.9,50,62c10.2,0,15.1-2,18.3-3.3c2.7-1.1,3.2-1.3,5,0C77.7,61.7,85.3,76.4,83.1,83.4z"/>
</g>
</svg>
