<?xml version="1.0" encoding="utf-8"?>
<!-- Generator: Adobe Illustrator 22.1.0, SVG Export Plug-In . SVG Version: 6.00 Build 0)  -->
<svg version="1.1" id="圖層_1" xmlns="http://www.w3.org/2000/svg" xmlns:xlink="http://www.w3.org/1999/xlink" x="0px" y="0px"
	 viewBox="0 0 100 100" style="enable-background:new 0 0 100 100;" xml:space="preserve">
<style type="text/css">
	.st0{fill:#FFFFFF;}
</style>
<g>
	<path class="st0" d="M82.5,19.8h-65c-4.9,0-8.8,4-8.8,8.8v43.1c0,4.9,4,8.8,8.8,8.8h65c4.9,0,8.8-4,8.8-8.8v-43
		C91.3,23.8,87.4,19.8,82.5,19.8z M87.3,71.8c0,2.6-2.1,4.8-4.8,4.8h-65c-2.6,0-4.8-2.1-4.8-4.8V28.7c0-2.6,2.1-4.8,4.8-4.8h65
		c2.6,0,4.8,2.1,4.8,4.8V71.8z"/>
	<path class="st0" d="M45.1,35H22.5c-2.7,0-4.8,2.2-4.8,4.8v20.8c0,2.7,2.2,4.8,4.8,4.8h22.7c2.7,0,4.8-2.2,4.8-4.8V39.8
		C50,37.1,47.8,35,45.1,35z M45.9,60.6c0,0.4-0.3,0.7-0.7,0.7H22.5c-0.4,0-0.7-0.3-0.7-0.7V39.8c0-0.4,0.3-0.7,0.7-0.7h22.7
		c0.4,0,0.7,0.3,0.7,0.7V60.6z"/>
	<rect x="58.1" y="38.1" class="st0" width="21.6" height="4.1"/>
	<rect x="58.1" y="48.6" class="st0" width="21.6" height="4.1"/>
	<rect x="58.1" y="58.2" class="st0" width="21.6" height="4.1"/>
</g>
</svg>
