<?xml version="1.0" encoding="utf-8"?>
<!-- Generator: Adobe Illustrator 22.1.0, SVG Export Plug-In . SVG Version: 6.00 Build 0)  -->
<svg version="1.1" id="圖層_1" xmlns="http://www.w3.org/2000/svg" xmlns:xlink="http://www.w3.org/1999/xlink" x="0px" y="0px"
	 viewBox="0 0 100 100" style="enable-background:new 0 0 100 100;" xml:space="preserve">
<style type="text/css">
	.st0{fill:#FFFFFF;}
</style>
<g>
	<path class="st0" d="M58,35.1C58,20.5,47.4,8.7,34.3,8.7S10.6,20.5,10.6,35c0,10.3,5.5,19.6,13.8,23.9c-0.3,1.7,0.1,3.4,1.2,4.7
		c1.1,1.4,2.8,2.2,4.5,2.2h1.4c-0.9,1.7-1.8,4.4-0.5,7.6l0.8,1.9c0.8,1.8,2.7,6.1,2.4,7c-1,0.5-1.4,1.7-0.9,2.7
		c0.4,0.7,1.1,1.1,1.8,1.1c0.3,0,0.6-0.1,0.9-0.2c4-2,1.5-7.7-0.5-12.3l-0.8-1.8c-1.1-2.6,0.8-4.9,0.9-5c0.2-0.3,0.4-0.6,0.4-0.9
		h2.8c1.8,0,3.4-0.8,4.5-2.2c1.1-1.4,1.5-3.2,1.2-4.9v-0.1C52.9,54.3,58,45.2,58,35.1z M41,55c-1.1,0.5-1.7,1.6-1.4,2.8l0.4,2
		c0.1,0.4-0.1,0.7-0.2,0.8c-0.1,0.1-0.3,0.4-0.7,0.4h-8.9c-0.4,0-0.6-0.2-0.7-0.4c-0.1-0.1-0.3-0.4-0.2-0.8l0.4-1.8
		c0.3-1.2-0.4-2.4-1.5-2.8c-7.6-3-12.6-11.1-12.6-20.2c0-11.8,8.4-21.4,18.8-21.4S53.2,23.2,53.2,35C53.1,43.9,48.2,51.9,41,55z"/>
	<path class="st0" d="M71.7,36.2C61.9,36.2,54,45,54,55.8c0,7.5,3.9,14.3,9.9,17.5c-0.1,1.2,0.3,2.5,1.1,3.4
		c0.9,1.2,2.3,1.8,3.8,1.8h1c-0.2,1.1-0.1,2.4,0.4,3.6l0.6,1.3c0.5,1.2,1.6,3.5,1.6,4.5c-0.7,0.6-0.9,1.6-0.5,2.5
		c0.4,0.7,1.1,1.1,1.8,1.1c0.3,0,0.6-0.1,0.9-0.2c3.3-1.7,1.3-6.2-0.1-9.5l-0.6-1.3c-0.3-0.8-0.2-1.5,0-2.1H75
		c1.5,0,2.9-0.7,3.8-1.8c0.8-1,1.2-2.4,1-3.7c5.8-3.4,9.4-9.9,9.4-17.3C89.4,45,81.4,36.2,71.7,36.2z M76.2,69.5
		c-1.1,0.5-1.7,1.6-1.4,2.8l0.3,1.4h-6.4l0.3-1.3c0.3-1.2-0.4-2.4-1.5-2.8c-5.2-2-8.6-7.6-8.6-13.9c0-8.1,5.7-14.7,12.8-14.7
		s12.8,6.6,12.8,14.7C84.5,61.8,81.2,67.3,76.2,69.5z"/>
</g>
</svg>
