<?xml version="1.0" encoding="utf-8"?>
<!-- Generator: Adobe Illustrator 22.1.0, SVG Export Plug-In . SVG Version: 6.00 Build 0)  -->
<svg version="1.1" id="圖層_1" xmlns="http://www.w3.org/2000/svg" xmlns:xlink="http://www.w3.org/1999/xlink" x="0px" y="0px"
	 viewBox="0 0 100 100" style="enable-background:new 0 0 100 100;" xml:space="preserve">
<style type="text/css">
	.st0{fill:#FFFFFF;}
</style>
<g>
	<path class="st0" d="M82,55h-1.2v-1c0-7.3-6-13.3-13.3-13.3H52.2V29.1h-4.1v11.6H32.8c-7.3,0-13.3,6-13.3,13.3v1H18
		c-3.7,0-6.7,3-6.7,6.7v3c0,3.7,3,6.7,6.7,6.7h6.4c3.7,0,6.7-3,6.7-6.7v-3c0-3.7-3-6.7-6.7-6.7h-0.8v-1c0-5.1,4.1-9.2,9.2-9.2h15.3
		V55h-0.8c-3.7,0-6.7,3-6.7,6.7v3c0,3.7,3,6.7,6.7,6.7h6.4c3.7,0,6.7-3,6.7-6.7v-3c0-3.7-3-6.7-6.7-6.7h-1.5V44.8h15.3
		c5.1,0,9.2,4.1,9.2,9.2v1h-1.2c-3.7,0-6.7,3-6.7,6.7v3c0,3.7,3,6.7,6.7,6.7H82c3.7,0,6.7-3,6.7-6.7v-3C88.6,58,85.6,55,82,55z"/>
</g>
</svg>
