<?xml version="1.0" encoding="utf-8"?>
<!-- Generator: Adobe Illustrator 22.1.0, SVG Export Plug-In . SVG Version: 6.00 Build 0)  -->
<svg version="1.1" id="圖層_1" xmlns="http://www.w3.org/2000/svg" xmlns:xlink="http://www.w3.org/1999/xlink" x="0px" y="0px"
	 viewBox="0 0 100 100" style="enable-background:new 0 0 100 100;" xml:space="preserve">
<style type="text/css">
	.st0{fill:#FFFFFF;}
</style>
<g>
	<path class="st0" d="M84.1,33.6l-6.7-17.9c-1.5-3.9-5.6-6.3-9.7-5.7l-18.9,3c-2.6,0.4-4.9,2-6.3,4.3l-26,44.9
		c-1.2,2-1.5,4.4-0.9,6.7s2.1,4.2,4.1,5.4l25.6,14.9l0,0c1.4,0.8,2.9,1.2,4.5,1.2c3.1,0,6-1.6,7.7-4.4l26.1-44.8
		C84.8,38.9,85.1,36.1,84.1,33.6z M80,39.2L53.9,84c-1.3,2.3-4.3,3.1-6.6,1.7l0,0L21.8,70.8c-1.1-0.6-1.9-1.7-2.2-2.9
		c-0.3-1.2-0.2-2.5,0.5-3.6l26.1-44.8c0.7-1.3,2-2.1,3.4-2.3l18.9-3c2.2-0.4,4.5,0.9,5.3,3.1l6.7,17.9C80.8,36.4,80.7,37.9,80,39.2z
		"/>
	<path class="st0" d="M67.3,22.1c-4.1-2.4-9.3-1-11.7,3.1s-1,9.3,3.1,11.7c1.3,0.8,2.8,1.2,4.3,1.2c2.9,0,5.8-1.5,7.4-4.2l0,0
		C72.8,29.7,71.4,24.4,67.3,22.1z M66.9,31.7c-1.2,2.1-4,2.8-6.1,1.6s-2.8-4-1.6-6.1C60,25.8,61.5,25,63,25c0.8,0,1.5,0.2,2.2,0.6
		C67.4,26.8,68.1,29.6,66.9,31.7z"/>
</g>
</svg>
