<?xml version="1.0" encoding="utf-8"?>
<!-- Generator: Adobe Illustrator 22.1.0, SVG Export Plug-In . SVG Version: 6.00 Build 0)  -->
<svg version="1.1" id="圖層_1" xmlns="http://www.w3.org/2000/svg" xmlns:xlink="http://www.w3.org/1999/xlink" x="0px" y="0px"
	 viewBox="0 0 100 100" style="enable-background:new 0 0 100 100;" xml:space="preserve">
<style type="text/css">
	.st0{fill:#FFFFFF;}
</style>
<g>
	<path class="st0" d="M81.6,20.6H18.4c-3,0-5.4,2.4-5.4,5.4v8.8c0,1.4,0.5,2.6,1.4,3.6V72c0,4.3,3.5,7.8,7.8,7.8h55.5
		c4.3,0,7.8-3.5,7.8-7.8V38.4c0.9-1,1.4-2.3,1.4-3.6V26C87,23,84.6,20.6,81.6,20.6z M17.1,26c0-0.7,0.6-1.3,1.3-1.3h63.2
		c0.7,0,1.3,0.6,1.3,1.3v8.8c0,0.6-0.4,0.9-0.6,1.1c-0.2,0.2-0.5,0.2-0.7,0.2H18.4c-0.3,0-0.5-0.1-0.8-0.3l0,0
		c-0.3-0.2-0.5-0.6-0.5-1V26z M81.5,72c0,2.1-1.7,3.8-3.8,3.8H22.2c-2.1,0-3.8-1.7-3.8-3.8V40.2h63L81.5,72L81.5,72z"/>
	<path class="st0" d="M40.5,47.6h19.2c1.1,0,2-0.9,2-2s-0.9-2-2-2H40.5c-1.1,0-2,0.9-2,2C38.4,46.7,39.4,47.6,40.5,47.6z"/>
</g>
</svg>
