<?xml version="1.0" encoding="utf-8"?>
<!-- Generator: Adobe Illustrator 22.1.0, SVG Export Plug-In . SVG Version: 6.00 Build 0)  -->
<svg version="1.1" id="圖層_1" xmlns="http://www.w3.org/2000/svg" xmlns:xlink="http://www.w3.org/1999/xlink" x="0px" y="0px"
	 viewBox="0 0 100 100" style="enable-background:new 0 0 100 100;" xml:space="preserve">
<style type="text/css">
	.st0{fill:#FFFFFF;}
</style>
<g>
	<path class="st0" d="M94.7,38.9l1.5-0.4V26c0-5.3-4.3-9.7-9.7-9.7h-73c-5.3,0-9.7,4.3-9.7,9.7v12.5l1.5,0.4
		c5.1,1.4,8.6,6.1,8.6,11.3c0,5.3-3.5,9.9-8.6,11.4L3.8,62v12.5c0,5.3,4.3,9.7,9.7,9.7h73.1c5.3,0,9.7-4.3,9.7-9.7V62l-1.5-0.4
		c-5.1-1.4-8.6-6.1-8.6-11.4C86.1,44.9,89.6,40.3,94.7,38.9z M82,50.2c0,6.6,4.1,12.4,10.1,14.8v9.4c0,3.1-2.5,5.6-5.6,5.6h-73
		c-3.1,0-5.6-2.5-5.6-5.6V65c6-2.3,10.1-8.2,10.1-14.8S13.9,37.8,7.9,35.4V26c0-3.1,2.5-5.6,5.6-5.6h73.1c3.1,0,5.6,2.5,5.6,5.6v9.4
		C86.1,37.8,82,43.6,82,50.2z"/>
	<path class="st0" d="M67.9,40.3l-6.7-1c-0.7-0.1-1.2-0.5-1.5-1.1l-3-6.1c-1-2.1-3.1-3.4-5.4-3.4s-4.4,1.3-5.4,3.4l-3,6.1
		c-0.3,0.6-0.8,1-1.5,1.1l-6.7,1c-2.3,0.3-4.2,1.9-4.9,4.1c-0.7,2.2-0.1,4.6,1.5,6.2l4.9,4.7c0.5,0.5,0.7,1.1,0.6,1.8l-1.1,6.7
		c-0.4,2.3,0.5,4.6,2.4,5.9c1.1,0.8,2.3,1.2,3.6,1.2c1,0,1.9-0.2,2.8-0.7l6-3.2c0.6-0.3,1.3-0.3,1.9,0l6,3.2
		c2.1,1.1,4.5,0.9,6.4-0.5c1.9-1.4,2.8-3.6,2.4-5.9l-1.1-6.7c-0.1-0.6,0.1-1.3,0.6-1.8l4.9-4.7c1.7-1.6,2.3-4,1.5-6.2
		C72.1,42.3,70.2,40.7,67.9,40.3z M68.4,47.8l-4.9,4.7c-1.4,1.4-2.1,3.4-1.8,5.4l1.1,6.7c0.1,0.8-0.2,1.5-0.8,1.9
		c-0.6,0.5-1.4,0.5-2.1,0.2l-6-3.2c-1.8-0.9-3.9-0.9-5.7,0l-6,3.2c-0.7,0.4-1.5,0.3-2.1-0.2s-0.9-1.2-0.8-1.9l1.1-6.7
		c0.3-2-0.3-4-1.7-5.4L34,47.8c-0.6-0.5-0.7-1.3-0.5-2s0.8-1.2,1.6-1.4l6.7-1c2-0.3,3.7-1.5,4.6-3.3l3-6.1c0.3-0.7,1-1.1,1.8-1.1
		s1.4,0.4,1.8,1.1l3,6.1c0.9,1.8,2.6,3,4.6,3.3l6.7,1c0.8,0.1,1.4,0.6,1.6,1.4C69.2,46.5,69,47.2,68.4,47.8z"/>
</g>
</svg>
