<?xml version="1.0" encoding="utf-8"?>
<!-- Generator: Adobe Illustrator 22.1.0, SVG Export Plug-In . SVG Version: 6.00 Build 0)  -->
<svg version="1.1" id="圖層_1" xmlns="http://www.w3.org/2000/svg" xmlns:xlink="http://www.w3.org/1999/xlink" x="0px" y="0px"
	 viewBox="0 0 100 100" style="enable-background:new 0 0 100 100;" xml:space="preserve">
<style type="text/css">
	.st0{fill:#FFFFFF;}
</style>
<g>
	<path class="st0" d="M17.3,25.9h40.4c0.8,4.5,4.8,7.9,9.5,7.9s8.6-3.4,9.5-7.9h5.9c1.1,0,2.1-0.9,2.1-2.1s-0.9-2.1-2.1-2.1h-6.1
		c-1.1-4.2-4.8-7.3-9.3-7.3s-8.3,3.1-9.3,7.3H17.3c-1.1,0-2.1,0.9-2.1,2.1S16.2,25.9,17.3,25.9z"/>
	<path class="st0" d="M82.7,48.5h-38c-0.7-4.6-4.7-8.2-9.5-8.2s-8.8,3.6-9.5,8.2h-8.2c-1.1,0-2.1,0.9-2.1,2.1c0,1.1,0.9,2.1,2.1,2.1
		h8.5c1.2,4,4.8,7,9.2,7s8.1-3,9.2-7h38.3c1.1,0,2.1-0.9,2.1-2.1C84.7,49.5,83.8,48.5,82.7,48.5z"/>
	<path class="st0" d="M82.7,73h-6.2c-1.2-3.9-4.9-6.8-9.2-6.8s-8,2.9-9.2,6.8H17.3c-1.1,0-2.1,0.9-2.1,2.1s0.9,2.1,2.1,2.1h40.4
		c0.6,4.7,4.6,8.4,9.5,8.4s8.9-3.7,9.5-8.4h5.9c1.1,0,2.1-0.9,2.1-2.1S83.8,73,82.7,73z"/>
</g>
</svg>
