<?xml version="1.0" encoding="utf-8"?>
<!-- Generator: Adobe Illustrator 22.1.0, SVG Export Plug-In . SVG Version: 6.00 Build 0)  -->
<svg version="1.1" id="圖層_1" xmlns="http://www.w3.org/2000/svg" xmlns:xlink="http://www.w3.org/1999/xlink" x="0px" y="0px"
	 viewBox="0 0 100 100" style="enable-background:new 0 0 100 100;" xml:space="preserve">
<style type="text/css">
	.st0{fill:#FFFFFF;}
</style>
<g>
	<path class="st0" d="M84.6,29.1c-1.3-1.7-3.2-2.6-5.4-2.6h-54c-2,0-3.8,0.8-5.1,2.2c-1.6-3.8-4-9.1-5.3-10.9
		c-2.6-3.5-10.1-1.2-13.3,0L3,21.6c3.5-1.3,7.8-2,8.6-1.3c1.3,1.8,4.7,9.5,6.5,14l0.3-0.1c0,0.8,0.1,1.5,0.3,2.3l8.8,31.1
		c-2,1.8-3.4,4.4-3.4,7.3c0,5.3,4.3,9.7,9.7,9.7c4.9,0,8.8-3.6,9.5-8.2h19.2c0.7,4.7,4.7,8.2,9.5,8.2c5.3,0,9.7-4.3,9.7-9.7
		c0-3.4-1.8-6.4-4.5-8.1l8.5-30.2C86.5,33.7,86.1,31.1,84.6,29.1z M72,65.1c-4.4,0-8.1,3-9.2,7H43c-1.2-4-4.8-7-9.2-7
		c-0.9,0-1.8,0.2-2.6,0.4l-5.6-19.8h53.3l-5.5,19.5C72.9,65.2,72.5,65.1,72,65.1z M81.8,35.3L80,41.6H24.7v0.9l-2-7.2
		c-0.4-1.4-0.3-2.8,0.4-3.7c0.5-0.7,1.2-1,2.2-1h53.9c0.9,0,1.7,0.3,2.2,1C82,32.5,82.2,33.9,81.8,35.3z"/>
</g>
</svg>
