<svg xmlns="http://www.w3.org/2000/svg" width="18.375" height="18.375" viewBox="0 0 18.375 18.375">
  <g id="Group_483" data-name="Group 483" transform="translate(-23 -11.5)">
    <g id="Group_465" data-name="Group 465" transform="translate(-314.026 -562.481)">
      <path id="Path_1448" data-name="Path 1448" d="M346.652,576.607h-.877c-1.007,0-1.76,1.117-1.681,2.393l.413,6.64a1.442,1.442,0,0,0,1.393,1.376h.627a1.441,1.441,0,0,0,1.393-1.376l.413-6.64C348.413,577.724,347.659,576.607,346.652,576.607Z" fill="#fff"/>
      <path id="Path_1449" data-name="Path 1449" d="M349.341,573.981h-6.254a6.068,6.068,0,0,0-6.061,6.06V586.3a6.067,6.067,0,0,0,6.061,6.059h6.254a6.067,6.067,0,0,0,6.06-6.059v-6.256A6.067,6.067,0,0,0,349.341,573.981ZM354.4,586.3a5.065,5.065,0,0,1-5.06,5.059h-2.476a1.732,1.732,0,0,0-.651-3.339h0a1.733,1.733,0,0,0-.652,3.339h-2.475a5.066,5.066,0,0,1-5.061-5.059v-6.256a5.067,5.067,0,0,1,5.061-5.06h6.254a5.066,5.066,0,0,1,5.06,5.06Z" fill="#fff"/>
    </g>
  </g>
</svg>
