<?xml version="1.0" encoding="utf-8"?>
<!-- Generator: Adobe Illustrator 22.1.0, SVG Export Plug-In . SVG Version: 6.00 Build 0)  -->
<svg version="1.1" id="圖層_1" xmlns="http://www.w3.org/2000/svg" xmlns:xlink="http://www.w3.org/1999/xlink" x="0px" y="0px"
	 viewBox="0 0 100 100" style="enable-background:new 0 0 100 100;" xml:space="preserve">
<style type="text/css">
	.st0{fill:#FFFFFF;}
</style>
<g>
	<path class="st0" d="M94.6,57.9L93.7,51l-2-14.5l-0.1-0.8C91,31.2,88.2,28,84.8,28H68.5c-0.4-3.4-3.2-6.2-6.8-6.2H22.1
		c-3.8,0-6.9,3.1-6.9,6.9v4.7h-8c-1.1,0-2,0.9-2,2s0.9,2,2,2h8v8.3h-8c-1.1,0-2,0.9-2,2s0.9,2,2,2h8v7.2h-8c-1.1,0-2,0.9-2,2
		s0.9,2,2,2h8v3.4c0,3.8,3.1,6.9,6.9,6.9h2c0.9,4.1,4.5,7.2,8.8,7.2s8-3.1,8.8-7.2H61c1,3.9,4.5,6.8,8.7,6.8c4.8,0,8.7-3.8,9-8.5
		h8.4C91.9,69.8,95.5,64,94.6,57.9z M19.4,49.9h13.4c1.1,0,2-0.9,2-2s-0.9-2-2-2H19.4v-8.3h13.4c1.1,0,2-0.9,2-2s-0.9-2-2-2H19.4
		v-4.7c0-1.5,1.2-2.8,2.8-2.8h39.6c1.5,0,2.8,1.2,2.8,2.8V62c-1.7,1.3-3,3.2-3.4,5.4H41.8c-0.9-3.6-3.9-6.3-7.6-6.7
		c0.4-0.4,0.6-0.9,0.6-1.5c0-1.1-0.9-2-2-2H19.4V49.9z M19.4,64.6v-3.4h10.2c-2.6,1.1-4.6,3.4-5.3,6.2h-2.1
		C20.6,67.4,19.4,66.1,19.4,64.6z M74.7,48.9V38.6h15.2l1.4,10.3C91.3,48.9,74.7,48.9,74.7,48.9z"/>
</g>
</svg>
