<?xml version="1.0" encoding="utf-8"?>
<!-- Generator: Adobe Illustrator 22.1.0, SVG Export Plug-In . SVG Version: 6.00 Build 0)  -->
<svg version="1.1" id="圖層_1" xmlns="http://www.w3.org/2000/svg" xmlns:xlink="http://www.w3.org/1999/xlink" x="0px" y="0px"
	 viewBox="0 0 100 100" style="enable-background:new 0 0 100 100;" xml:space="preserve">
<style type="text/css">
	.st0{fill:#FFFFFF;}
</style>
<g>
	<path class="st0" d="M89.4,77.8H83V50.2h0.1c2.3,0,4.4-1,5.8-2.9c1.6-2,2.1-4.5,1.5-7L86.5,24c-0.8-3.5-3.8-6-7.3-6H20.9
		c-3.4,0-6.4,2.5-7.2,6l-4,16.3c-0.6,2.5,0,5.1,1.5,7.1c1.4,1.8,3.5,2.8,5.8,2.8l0,0v27.6h-6.4c-1.1,0-2,0.9-2,2s0.9,2,2,2H17l0,0
		h66l0,0h6.4c1.1,0,2-0.9,2-2S90.5,77.8,89.4,77.8z M16.9,46.1c-1,0-1.9-0.5-2.6-1.3c-0.8-1-1.1-2.3-0.7-3.6l4-16.3
		c0.4-1.7,1.7-2.8,3.3-2.8h58.3c1.5,0,2.9,1.2,3.3,2.8l3.9,16.3c0.3,1.3,0.1,2.6-0.7,3.6c-0.7,0.8-1.6,1.3-2.6,1.3H83H17H16.9z
		 M21.1,50.2h57.8v27.6H61.5v-8.1c0-3.6-1.1-7.1-3.2-9.7c-2.2-2.8-5.1-4.3-8.3-4.3c-6.4,0-11.5,6.3-11.5,14v8.1H21.1V50.2z
		 M57.4,77.8H42.6v-8.1c0-5.5,3.3-9.9,7.4-9.9c1.9,0,3.7,1,5.1,2.7c1.5,1.9,2.3,4.5,2.3,7.2C57.4,69.7,57.4,77.8,57.4,77.8z"/>
</g>
</svg>
