<?xml version="1.0" encoding="utf-8"?>
<!-- Generator: Adobe Illustrator 22.1.0, SVG Export Plug-In . SVG Version: 6.00 Build 0)  -->
<svg version="1.1" id="圖層_1" xmlns="http://www.w3.org/2000/svg" xmlns:xlink="http://www.w3.org/1999/xlink" x="0px" y="0px"
	 viewBox="0 0 100 100" style="enable-background:new 0 0 100 100;" xml:space="preserve">
<style type="text/css">
	.st0{fill:#FFFFFF;}
</style>
<g>
	<path class="st0" d="M82.8,19.3H17.2c-4.9,0-8.9,4-8.9,8.9v43.5c0,4.9,4,8.9,8.9,8.9h65.6c4.9,0,8.9-4,8.9-8.9V28.2
		C91.7,23.3,87.7,19.3,82.8,19.3z M87.6,71.8c0,2.7-2.2,4.8-4.8,4.8H17.2c-2.7,0-4.8-2.2-4.8-4.8V28.2c0-2.7,2.2-4.8,4.8-4.8h65.6
		c2.7,0,4.8,2.2,4.8,4.8C87.6,28.2,87.6,71.8,87.6,71.8z"/>
	<path class="st0" d="M67,50c0-2.5-0.7-4.5-2.1-5.8s-3.5-2-6.1-2h-3.1v16.1h3c2.6,0,4.6-0.7,6.1-2.2C66.2,54.7,67,52.6,67,50z"/>
	<path class="st0" d="M18.2,70.4h63V30.1h-63C18.2,30.1,18.2,70.4,18.2,70.4z M52.3,39.2H59c7.8,0,11.6,3.6,11.6,10.7
		c0,3.4-1.1,6.2-3.3,8.2c-2.2,2-5,3-8.5,3h-6.5C52.3,61.1,52.3,39.2,52.3,39.2z M37.2,39.2H41l8.2,22h-3.8l-2-5.7h-8.8l-2,5.7h-3.7
		L37.2,39.2z"/>
	<path class="st0" d="M39.3,44c-0.1-0.3-0.2-0.9-0.3-1.7h-0.1c-0.1,0.7-0.2,1.2-0.4,1.6l-3.1,8.7h6.9L39.3,44z"/>
</g>
</svg>
