<?xml version="1.0" encoding="utf-8"?>
<!-- Generator: Adobe Illustrator 22.1.0, SVG Export Plug-In . SVG Version: 6.00 Build 0)  -->
<svg version="1.1" id="圖層_1" xmlns="http://www.w3.org/2000/svg" xmlns:xlink="http://www.w3.org/1999/xlink" x="0px" y="0px"
	 viewBox="0 0 100 100" style="enable-background:new 0 0 100 100;" xml:space="preserve">
<style type="text/css">
	.st0{fill:#FFFFFF;}
</style>
<g>
	<path class="st0" d="M27.5,25.5c-3.7,0-7.2,1-10.4,3v6.9c2.8-2.8,6-4.2,9.5-4.2c1.9,0,3.4,0.5,4.6,1.5s1.8,2.4,1.8,4.1
		c0,1.1-0.3,2.3-0.9,3.4s-2,2.7-4.3,4.9c-1.9,1.8-3.3,3.4-4,4.8c-0.7,1.4-1.1,2.9-1.1,4.4s0.2,3,0.7,4.4h6.2c-0.6-1.4-1-2.7-1-4
		c0-1,0.3-2.1,0.8-3.1s1.9-2.6,4.2-4.6c2.3-2.1,4-3.9,4.8-5.6c0.9-1.7,1.3-3.4,1.3-5.4c0-3.3-1.1-5.9-3.4-7.7
		C34.2,26.4,31.2,25.5,27.5,25.5z"/>
	<path class="st0" d="M26.9,63.8c-1.2,0-2.2,0.4-3,1.2s-1.3,1.8-1.3,2.9s0.4,2,1.3,2.8c0.8,0.8,1.9,1.2,3.2,1.2
		c1.1,0,2.1-0.4,2.9-1.2c0.8-0.8,1.2-1.7,1.2-2.9c0-1.2-0.4-2.2-1.3-2.9C29,64.2,28,63.8,26.9,63.8z"/>
	<path class="st0" d="M74.7,33.9h2.6c3.1,0,5.7-2.6,5.7-5.7v-5.5c0-3.1-2.6-5.7-5.7-5.7h-2.6c-3.1,0-5.7,2.6-5.7,5.7v0.7h-0.9
		c-6.4,0-11.6,5.2-11.6,11.6v12.8h-9.6v4.1h9.6v12.8c0,6.4,5.2,11.6,11.6,11.6H69v1c0,3.1,2.6,5.7,5.7,5.7h2.6
		c3.1,0,5.7-2.6,5.7-5.7v-5.5c0-3.1-2.6-5.7-5.7-5.7h-2.6c-3.1,0-5.7,2.6-5.7,5.7v0.4h-0.9c-4.2,0-7.6-3.4-7.6-7.6V51.9H69v0.4
		c0,3.1,2.6,5.7,5.7,5.7h2.6c3.1,0,5.7-2.6,5.7-5.7v-5.5c0-3.1-2.6-5.7-5.7-5.7h-2.6c-3.1,0-5.7,2.6-5.7,5.7v1h-8.4V35
		c0-4.2,3.4-7.6,7.6-7.6H69v0.7C69,31.3,71.6,33.9,74.7,33.9z"/>
</g>
</svg>
