<?xml version="1.0" encoding="utf-8"?>
<!-- Generator: Adobe Illustrator 22.1.0, SVG Export Plug-In . SVG Version: 6.00 Build 0)  -->
<svg version="1.1" id="圖層_1" xmlns="http://www.w3.org/2000/svg" xmlns:xlink="http://www.w3.org/1999/xlink" x="0px" y="0px"
	 viewBox="0 0 100 100" style="enable-background:new 0 0 100 100;" xml:space="preserve">
<style type="text/css">
	.st0{fill:#FFFFFF;}
</style>
<g>
	<path class="st0" d="M35.9,65.4l10.7,10.2H38l-8.5-9.3c-6-0.1-10.7-2.1-13.9-5.9c-3.3-3.8-4.9-8.7-4.9-14.6
		c0-6.4,1.7-11.6,5.2-15.5s8.4-5.9,14.8-5.9c5.9,0,10.5,1.9,13.9,5.7s5,8.7,5,14.9c0,5.2-1.1,9.7-3.3,13.3
		C44.1,61.8,40.6,64.3,35.9,65.4z M30.4,29.9c-4.1,0-7.3,1.4-9.7,4.3c-2.3,2.9-3.5,6.6-3.5,11.3s1.1,8.4,3.4,11.2
		c2.2,2.8,5.4,4.2,9.4,4.2c4.1,0,7.3-1.4,9.6-4.1c2.3-2.7,3.4-6.5,3.4-11.2c0-4.9-1.1-8.7-3.2-11.5C37.7,31.2,34.5,29.9,30.4,29.9z"
		/>
	<path class="st0" d="M89.3,65.6h-6.9L78.6,55H62.3l-3.6,10.6h-6.9L67.1,25h7L89.3,65.6z M76.8,49.8l-5.7-16
		c-0.2-0.6-0.4-1.6-0.6-3.1h-0.2c-0.2,1.2-0.4,2.2-0.7,3L64,49.8C64,49.8,76.8,49.8,76.8,49.8z"/>
</g>
</svg>
