<?xml version="1.0" encoding="utf-8"?>
<!-- Generator: Adobe Illustrator 22.1.0, SVG Export Plug-In . SVG Version: 6.00 Build 0)  -->
<svg version="1.1" id="圖層_1" xmlns="http://www.w3.org/2000/svg" xmlns:xlink="http://www.w3.org/1999/xlink" x="0px" y="0px"
	 viewBox="0 0 100 100" style="enable-background:new 0 0 100 100;" xml:space="preserve">
<style type="text/css">
	.st0{fill:#FFFFFF;}
</style>
<g>
	<path class="st0" d="M90.4,25.4c-1.6-2.4-4.4-3.9-7.5-3.9H17.1c-0.8,0-1.6,0.1-2.4,0.4c-0.3,0.1-0.5,0.2-0.7,0.2
		c-0.4,0.2-0.9,0.4-1.3,0.6c-0.2,0.1-0.5,0.2-0.7,0.4c-2.4,1.6-3.8,4.1-3.8,6.8v40.2c0,4.6,4,8.4,8.9,8.4H83c4.9,0,8.9-3.8,8.9-8.4
		V29.9C91.9,28.3,91.4,26.7,90.4,25.4z M82.9,25.6c0.4,0,0.7,0.1,1.1,0.1c1,0.2,1.9,0.8,2.6,1.6c-0.4,2-1.3,3.7-2.8,5.1L58.1,58.2
		c-3.9,3.9-10.4,3.9-14.3,0L18,32.4c-1.7-1.7-2.7-4-2.9-6.4l0,0c0.6-0.3,1.3-0.4,1.9-0.4C17,25.6,82.9,25.6,82.9,25.6z M82.9,74.4
		H17.1c-2.7,0-4.8-1.9-4.8-4.3V31c0.7,1.6,1.6,3.1,2.9,4.3l15.1,15.1c-0.6-0.1-1.3,0-1.8,0.5L15.1,64.2c-0.8,0.8-0.8,2.1,0,2.9
		c0.4,0.4,0.9,0.6,1.4,0.6s1-0.2,1.4-0.6l13.2-13.2c0.5-0.5,0.6-1.2,0.5-1.8l9.1,9.1c2.8,2.8,6.4,4.2,10,4.2s7.3-1.4,10-4.2l6.9-6.9
		l12.8,12.8c0.4,0.4,0.9,0.6,1.4,0.6s1-0.2,1.4-0.6c0.8-0.8,0.8-2.1,0-2.9L70.8,51.3l16-16c0.4-0.4,0.7-0.8,1-1.2v36
		C87.8,72.5,85.6,74.4,82.9,74.4z"/>
</g>
</svg>
