<?xml version="1.0" encoding="utf-8"?>
<!-- Generator: Adobe Illustrator 22.1.0, SVG Export Plug-In . SVG Version: 6.00 Build 0)  -->
<svg version="1.1" id="圖層_1" xmlns="http://www.w3.org/2000/svg" xmlns:xlink="http://www.w3.org/1999/xlink" x="0px" y="0px"
	 viewBox="0 0 100 100" style="enable-background:new 0 0 100 100;" xml:space="preserve">
<style type="text/css">
	.st0{fill:#FFFFFF;}
</style>
<g>
	<path class="st0" d="M82.5,19.8h-65c-4.9,0-8.8,4-8.8,8.8v43.1c0,4.9,4,8.8,8.8,8.8h65c4.9,0,8.8-4,8.8-8.8V28.6
		C91.4,23.8,87.4,19.8,82.5,19.8z M87.3,71.8c0,2.6-2.1,4.8-4.8,4.8h-65c-2.6,0-4.8-2.1-4.8-4.8V28.6c0-2.6,2.1-4.8,4.8-4.8h65
		c2.6,0,4.8,2.1,4.8,4.8V71.8z"/>
	<path class="st0" d="M72.7,40.8L53,64.5l-3.1-3.7c0-0.1,0-0.1,0-0.2v-4.5V39.8c0-2.7-2.2-4.8-4.8-4.8H22.5c-2.7,0-4.8,2.2-4.8,4.8
		v20.8c0,2.7,2.2,4.8,4.8,4.8h22.7c0.2,0,0.4-0.1,0.6-0.1l7.4,8.7l24.3-29.4c1.1-1.3,0.9-3.2-0.4-4.3C75.7,39.3,73.7,39.5,72.7,40.8
		z M22.5,61.4c-0.4,0-0.7-0.3-0.7-0.7V39.8c0-0.4,0.3-0.7,0.7-0.7h22.7c0.4,0,0.7,0.3,0.7,0.7v16.3l-4.8-5.6c-1.1-1.3-3-1.4-4.3-0.4
		c-1.3,1.1-1.4,3-0.4,4.3l5.9,6.9H22.5V61.4z"/>
</g>
</svg>
