<svg id="圖層_1" data-name="圖層 1" xmlns="http://www.w3.org/2000/svg" viewBox="0 0 100 100"><title>admin</title><path d="M97.41,47.94a4.27,4.27,0,0,0,2.1-2.61A4.2,4.2,0,0,0,99.16,42l-3.76-7A4.15,4.15,0,0,0,92.84,33a4.37,4.37,0,0,0-3.34.34L86,35.19A15.32,15.32,0,0,0,83.9,34L84,29.89a4.32,4.32,0,0,0-4.2-4.45l-8-.21a4.12,4.12,0,0,0-3.08,1.2,4.24,4.24,0,0,0-1.37,3l-.12,4.06A11.7,11.7,0,0,0,66.2,34c-.39.21-.73.42-1.07.64l-.86-.52a10.27,10.27,0,0,0,.09-1.66A22.92,22.92,0,1,0,41.44,55.38a22.58,22.58,0,0,0,14.88-5.52c0,.47,0,.9,0,1.37l-3.55,1.92a4.23,4.23,0,0,0-2.22,4,55.85,55.85,0,0,1-9.15.73c-9.54,0-14-1.84-17-3.08s-5.17-2.09-8.76.43C10.44,59,1.59,75.52,4.45,84.54c1.2,3.76,4.32,5.86,8.81,5.86H69.62c4.49,0,7.61-2.1,8.85-5.86A13,13,0,0,0,79,80.6a21.36,21.36,0,0,0-.56-4.74h0a4.32,4.32,0,0,0,4.32-4.24l.13-4c.38-.18.73-.35,1.11-.56s.68-.39,1-.6l3.46,2.1a4.18,4.18,0,0,0,3.25.51,4.27,4.27,0,0,0,2.69-1.92l4.15-6.8a4.21,4.21,0,0,0,.56-3.25,4.4,4.4,0,0,0-2-2.7L93.82,52.3a23.3,23.3,0,0,0,.09-2.48Zm-42.2-2c-.47.47-.94.89-1.41,1.28a19.25,19.25,0,1,1,6.92-15.09v.34c0,.51,0,1.07-.08,1.58a14,14,0,0,1-.26,2,18.52,18.52,0,0,1-3.93,8.51A14.19,14.19,0,0,1,55.21,45.93Zm5,7.39L60,52.08a14.87,14.87,0,0,1,.13-3.93l.21-1.2-.81-.51A21.56,21.56,0,0,0,63.63,38l1.63,1,1-.73a17.77,17.77,0,0,1,1.67-1.07c.6-.3,1.19-.55,1.79-.81L70.86,36,71,29.55a.54.54,0,0,1,.21-.47.94.94,0,0,1,.52-.21l7.95.21a.74.74,0,0,1,.64.73l-.17,6.41,1.11.51a14.68,14.68,0,0,1,3.38,2.06l.94.77,5.64-3a.86.86,0,0,1,.52-.09.79.79,0,0,1,.43.35l3.76,7a.79.79,0,0,1-.26.94l-5.64,3L90.19,49a16.21,16.21,0,0,1-.13,4l-.17,1.2,5.47,3.37a.87.87,0,0,1,.3.43.82.82,0,0,1-.09.51l-4.19,6.76a.72.72,0,0,1-.94.21L85,62.09l-1,.68a11,11,0,0,1-1.67,1.07,12,12,0,0,1-1.8.82l-1.15.47-.17,6.41a.67.67,0,0,1-.69.64l-1,0c-2.4-7.36-7-14.58-10.27-16.89-3.63-2.52-5.9-1.58-8.8-.43A25.59,25.59,0,0,1,55.25,56ZM75,83.43c-.42,1.41-1.49,3.29-5.34,3.29H13.26c-3.85,0-4.87-1.88-5.34-3.29-2.27-7.1,5.51-22.11,9.87-25.19a3.82,3.82,0,0,1,2.27-.94,9.25,9.25,0,0,1,3,.9c3.2,1.32,8.08,3.33,18.34,3.33a56.22,56.22,0,0,0,10.48-.89c.64-.13,1.28-.26,1.83-.39s1.29-.34,1.84-.51c1.71-.52,3-1.07,4.19-1.54,2.7-1.07,3.34-1.33,5.31,0C67.65,60,71.41,66,73.55,72.05h0c.22.6.43,1.24.6,1.84a8.89,8.89,0,0,1,.47,1.84h0A15,15,0,0,1,75,83.43Z" style="fill:#fff"/><path d="M75.13,58.11a7.86,7.86,0,0,0,3.6-.9,7.55,7.55,0,0,0,3.63-4.53,7.8,7.8,0,0,0,.34-2.18,7.7,7.7,0,0,0-5.43-7.22,7.57,7.57,0,1,0-2.14,14.83Z" style="fill:#fff"/></svg>