<svg id="圖層_1" data-name="圖層 1" xmlns="http://www.w3.org/2000/svg" viewBox="0 0 100 100"><title>cancel_order</title><path d="M75.29,19.48h-61a5.15,5.15,0,0,0-5.2,5.2v8.47a5.27,5.27,0,0,0,1.34,3.47V69A7.57,7.57,0,0,0,18,76.57H50.86A8.8,8.8,0,0,1,52,72.63H18A3.62,3.62,0,0,1,14.38,69V38.35H75.17V49.07l3.94-3.94V36.66a5.14,5.14,0,0,0,1.38-3.51V24.68A5.23,5.23,0,0,0,75.29,19.48Zm1.26,13.67a1.24,1.24,0,0,1-.55,1,1.19,1.19,0,0,1-.71.24h-61a1.12,1.12,0,0,1-.75-.28,1.15,1.15,0,0,1-.51-1V24.68a1.22,1.22,0,0,1,1.26-1.26h61a1.25,1.25,0,0,1,1.26,1.26Z" style="fill:#fff"/><path d="M55,41.82a8.78,8.78,0,0,0-3.31,3.74H35.62a2,2,0,0,1,0-3.94H54.13A2.32,2.32,0,0,1,55,41.82Z" style="fill:#fff"/><path d="M78.41,63.42,89.94,51.88a3.26,3.26,0,0,0-4.6-4.61L73.8,58.81,62.26,47.27a3.26,3.26,0,1,0-4.6,4.61L69.19,63.42,57.66,75a3.25,3.25,0,1,0,4.6,4.6L73.8,68,85.34,79.56a3.25,3.25,0,0,0,4.6-4.6Z" style="fill:#fff"/></svg>