<svg xmlns="http://www.w3.org/2000/svg" xmlns:xlink="http://www.w3.org/1999/xlink" width="8.971" height="12.003" viewBox="0 0 8.971 12.003">
  <defs>
    <clipPath id="clip-path">
      <path id="_Icon_小olor" data-name=" Icon 小olor" d="M10.214,8.971H1.788A1.76,1.76,0,0,1,.2,7.922a2.087,2.087,0,0,1,.258-2.21L4.675.613a1.741,1.741,0,0,1,2.652,0l4.213,5.1A2.085,2.085,0,0,1,11.8,7.922a1.76,1.76,0,0,1-1.585,1.049" transform="translate(5.999 7.029)" fill="#004c7c"/>
    </clipPath>
  </defs>
  <g id="Group_233" data-name="Group 233" transform="translate(-7.029 18.001) rotate(-90)">
    <path id="_Icon_小olor-2" data-name=" Icon 小olor" d="M10.214,8.971H1.788A1.76,1.76,0,0,1,.2,7.922a2.087,2.087,0,0,1,.258-2.21L4.675.613a1.741,1.741,0,0,1,2.652,0l4.213,5.1A2.085,2.085,0,0,1,11.8,7.922a1.76,1.76,0,0,1-1.585,1.049" transform="translate(5.999 7.029)" fill="#004c7c"/>
  </g>
</svg>
