<svg xmlns="http://www.w3.org/2000/svg" xmlns:xlink="http://www.w3.org/1999/xlink" width="8.971" height="12.003" viewBox="0 0 8.971 12.003">
  <defs>
    <clipPath id="clip-path">
      <path id="_Icon_小olor" data-name=" Icon 小olor" d="M10.214,0H1.788A1.76,1.76,0,0,0,.2,1.049a2.087,2.087,0,0,0,.258,2.21l4.214,5.1a1.741,1.741,0,0,0,2.652,0l4.213-5.1A2.085,2.085,0,0,0,11.8,1.049,1.76,1.76,0,0,0,10.214,0" transform="translate(0)" fill="#004c7c"/>
    </clipPath>
  </defs>
  <g id="Group_234" data-name="Group 234" transform="translate(0 12.003) rotate(-90)">
    <path id="_Icon_小olor-2" data-name=" Icon 小olor" d="M10.214,0H1.788A1.76,1.76,0,0,0,.2,1.049a2.087,2.087,0,0,0,.258,2.21l4.214,5.1a1.741,1.741,0,0,0,2.652,0l4.213-5.1A2.085,2.085,0,0,0,11.8,1.049,1.76,1.76,0,0,0,10.214,0" transform="translate(0 0)" fill="#004c7c"/>
  </g>
</svg>
